<svg xmlns="http://www.w3.org/2000/svg" width="37" height="36" fill="none">
  <g clip-path="url(#a)">
    <path fill="#4CC764" d="M18.5 36c9.941 0 18-8.059 18-18s-8.059-18-18-18S.5 8.059.5 18s8.059 18 18 18Z" />
    <path fill="#fff" d="M30.504 16.952c0-5.378-5.391-9.752-12.016-9.752S6.472 11.575 6.472 16.952c0 4.82 4.275 8.857 10.05 9.62.39.085.923.258 1.058.594.121.303.079.78.04 1.086l-.172 1.029c-.053.303-.242 1.188 1.04.648 1.283-.54 6.92-4.075 9.442-6.977 1.741-1.91 2.576-3.847 2.576-6h-.002Z" />
    <path fill="#4CC764" d="M26.507 20.056a.23.23 0 0 0 .23-.23v-.852a.23.23 0 0 0-.23-.23h-2.294v-.885h2.294a.23.23 0 0 0 .23-.23v-.851a.23.23 0 0 0-.23-.23h-2.294v-.885h2.294a.23.23 0 0 0 .23-.23v-.851a.23.23 0 0 0-.23-.23h-3.376a.229.229 0 0 0-.23.23v5.245c0 .127.103.23.23.23h3.376Zm-12.488 0a.23.23 0 0 0 .23-.23v-.852a.23.23 0 0 0-.23-.23h-2.294v-4.162a.23.23 0 0 0-.23-.23h-.852a.23.23 0 0 0-.23.23v5.245c0 .127.102.23.23.23h3.376Zm2.031-5.704h-.85a.23.23 0 0 0-.23.23v5.244c0 .126.102.23.23.23h.85a.23.23 0 0 0 .23-.23v-5.244a.23.23 0 0 0-.23-.23Zm5.803 0H21a.23.23 0 0 0-.23.23v3.115l-2.4-3.24-.017-.024h-.001l-.014-.015-.004-.004-.013-.01-.007-.004a.025.025 0 0 0-.012-.008l-.007-.005-.012-.006a.215.215 0 0 0-.02-.01l-.008-.002c-.005 0-.01-.003-.014-.004a.02.02 0 0 1-.008-.002c-.004 0-.009-.003-.013-.004h-.01l-.012-.002h-.868a.23.23 0 0 0-.23.23v5.244c0 .127.103.23.23.23h.853a.23.23 0 0 0 .23-.23v-3.114l2.401 3.245a.224.224 0 0 0 .062.06l.015.008.007.004.01.005c.004.003.009.004.012.005l.007.002.015.005h.004c.019.004.04.008.06.008h.847a.23.23 0 0 0 .23-.23v-5.245a.23.23 0 0 0-.23-.23v-.002Z" />
  </g>
  <defs>
    <clipPath id="a"><path fill="#fff" d="M.5 0h36v36H.5z" /></clipPath>
  </defs>
</svg>