<svg width="37" height="36" fill="none" xmlns="http://www.w3.org/2000/svg">
  <g clip-path="url(#a)">
    <path d="M36.5 18c0-9.941-8.059-18-18-18S.5 8.059.5 18c0 8.984 6.582 16.431 15.188 17.781V23.203h-4.57V18h4.57v-3.966c0-4.51 2.687-7.003 6.798-7.003 1.97 0 4.03.352 4.03.352v4.43h-2.27c-2.236 0-2.933 1.387-2.933 2.81V18h4.992l-.798 5.203h-4.195v12.578C29.919 34.431 36.5 26.985 36.5 18Z" fill="#1877F2" />
    <path d="M25.507 23.203 26.305 18h-4.992v-3.376c0-1.424.697-2.812 2.933-2.812h2.27v-4.43s-2.06-.35-4.03-.35c-4.111 0-6.799 2.491-6.799 7.002V18h-4.57v5.203h4.57v12.578a18.132 18.132 0 0 0 5.626 0V23.203h4.194Z" fill="#fff" />
  </g>
  <defs>
    <clipPath id="a">
      <path fill="#fff" transform="translate(.5)" d="M0 0h36v36H0z" />
    </clipPath>
  </defs>
</svg>