<svg xmlns="http://www.w3.org/2000/svg" fill="none" viewBox="0 0 20 20"><path fill="#76DB9B" d="M10 12.896c1.375-1.111 2.413-2.18 3.114-3.208.702-1.028 1.052-1.994 1.052-2.896 0-.778-.142-1.441-.427-1.99-.284-.548-.635-.993-1.052-1.333a4.047 4.047 0 0 0-1.354-.74A4.481 4.481 0 0 0 10 2.5a4.48 4.48 0 0 0-1.334.23c-.486.152-.937.399-1.354.739-.416.34-.767.785-1.052 1.333-.284.549-.427 1.212-.427 1.99 0 .902.35 1.868 1.052 2.896.702 1.027 1.74 2.097 3.115 3.208Zm0 1.77a1.34 1.34 0 0 1-.406-.062 1.213 1.213 0 0 1-.365-.187c-1.125-.875-2.25-1.976-3.375-3.302-1.125-1.327-1.688-2.768-1.688-4.323 0-.986.178-1.851.532-2.594a5.868 5.868 0 0 1 1.364-1.865 5.63 5.63 0 0 1 1.875-1.125A6.06 6.06 0 0 1 10 .833c.68 0 1.368.125 2.062.375.695.25 1.32.625 1.875 1.125.556.5 1.01 1.122 1.365 1.865.354.743.531 1.608.531 2.594 0 1.555-.562 2.996-1.687 4.323-1.125 1.326-2.25 2.427-3.375 3.302a1.213 1.213 0 0 1-.365.187 1.34 1.34 0 0 1-.406.063Zm0-6.333c.458 0 .85-.163 1.177-.49.326-.326.49-.718.49-1.176 0-.459-.164-.851-.49-1.177A1.605 1.605 0 0 0 10 5c-.459 0-.85.163-1.177.49-.327.326-.49.718-.49 1.177 0 .458.163.85.49 1.177.326.326.718.49 1.177.49Z"/><path fill="#76DB9B" fill-rule="evenodd" d="M12.5 14.043v2.978l-5-1.167v-1.81a25.065 25.065 0 0 1-1.667-1.688v3.498l-2.5.959v-5.709l1.183-.394a7.617 7.617 0 0 1-.752-1.494L2.25 9.73a.941.941 0 0 0-.427.313.777.777 0 0 0-.156.479v7.52c0 .154.03.289.093.407s.15.212.26.281c.112.07.233.115.365.136a.76.76 0 0 0 .407-.052l3.875-1.5 6.124 1.562c.084.028.17.049.26.063a1.847 1.847 0 0 0 .824-.063l3.875-1.313a.94.94 0 0 0 .427-.312.777.777 0 0 0 .156-.48V9.25a.855.855 0 0 0-.094-.406.726.726 0 0 0-.26-.281.964.964 0 0 0-.365-.136.76.76 0 0 0-.406.052l-.834.323a7.598 7.598 0 0 1-1.093 2.208l1.385-.53v5.707l-2.5.834v-4.665a25.049 25.049 0 0 1-1.666 1.687ZM15.346 9.2a7.438 7.438 0 0 0 0 0Z" clip-rule="evenodd"/></svg>