<svg width="100%" height="100%" viewBox="0 0 25 24" fill="none" xmlns="http://www.w3.org/2000/svg">
<circle cx="4.5" cy="4.5" r="3.7" transform="matrix(-1 0 0 1 10.5 12.5)" stroke="#76DB9B" stroke-width="1.6"/>
<path d="M17.5 11.5L20.022 15.4631C20.4456 16.1288 19.9674 17 19.1783 17H14.5H13.5C12.9477 17 12.5098 16.5487 12.4223 16.0034C12.0401 13.6215 10.325 12.2321 9 11.5M17.5 11.5C17.5 11.5 16.2973 9.36833 15.5 8.85057M17.5 11.5L21.6745 10.1085C21.8855 10.0382 22.067 9.89955 22.1903 9.71452L22.6195 9.07078C23.1194 8.32093 22.4502 7.34439 21.5705 7.53989L19.5 8L15.5 8.85057M15.5 8.85057C14 8 12.7852 8 11.5 8C9.95461 8 8.50873 6.60686 8.08505 5.20463C7.90253 4.60055 7.40306 3.99119 6.79259 4.15105C4.15202 4.84252 3 7.74727 3 9.5C3 11.5 3 11.4741 4.5 11C5.48044 10.6901 7.5 10.6712 9 11.5M6 17L9 11.5" stroke="#76DB9B" stroke-width="1.6" stroke-linecap="round" stroke-linejoin="round"/>
<path fill-rule="evenodd" clip-rule="evenodd" d="M17.8448 13.0487C18.4848 12.6989 19.2192 12.5 20 12.5C22.4853 12.5 24.5 14.5147 24.5 17C24.5 19.4853 22.4853 21.5 20 21.5C17.5147 21.5 15.5 19.4853 15.5 17H17.1C17.1 18.6016 18.3984 19.9 20 19.9C21.6016 19.9 22.9 18.6016 22.9 17C22.9 15.3984 21.6016 14.1 20 14.1C19.4968 14.1 19.0235 14.2282 18.6111 14.4536L17.8448 13.0487Z" fill="#76DB9B"/>
<path d="M3 8L8.5 6.5" stroke="#76DB9B" stroke-width="1.6"/>
</svg> 