<svg  viewBox="0 0 25 25" fill="none" xmlns="http://www.w3.org/2000/svg">
<path d="M12.7502 13.2168C10.9436 13.2168 10.4358 11.791 8.21898 11.7226C7.85392 11.7123 7.64639 11.1257 7.95205 10.9259L10.3479 9.35935C10.6213 9.1738 10.5823 8.90036 10.3967 8.70505L8.77562 7.02536L5.82641 9.10544C5.26977 9.50583 4.69359 9.35935 4.37133 8.99802C3.99047 8.5781 3.92211 7.87497 4.58617 7.40622L8.26781 4.78904C8.79516 4.40818 9.44945 4.47654 9.88891 4.92575L16.02 11.3108C16.2244 11.5237 16.1145 11.8858 15.8388 11.991C14.6903 12.4291 14.0822 13.2168 12.7502 13.2168ZM16.5979 9.33982C15.4358 9.33982 14.4885 8.39255 14.4885 7.23044C14.4885 6.0781 15.4358 5.13083 16.5979 5.13083C17.7502 5.13083 18.6975 6.0781 18.6975 7.23044C18.6975 8.39255 17.7502 9.33982 16.5979 9.33982Z" fill="#76DB9B"/>
<path d="M1.59766 15.7539C1.59766 16.0859 1.86133 16.3496 2.19336 16.3496H3.17969C5.73828 16.3496 6.28516 14.8164 7.96484 14.8164C9.56641 14.8164 10.1914 16.3496 12.75 16.3496C15.3086 16.3496 15.9336 14.8164 17.5352 14.8164C19.2148 14.8164 19.7715 16.3496 22.3203 16.3496H23.3066C23.6387 16.3496 23.9023 16.0859 23.9023 15.7539C23.9023 15.4219 23.6387 15.1582 23.3066 15.1582H22.3203C20.5723 15.1582 19.9863 13.625 17.5352 13.625C15.1719 13.625 14.498 15.1582 12.75 15.1582C11.002 15.1582 10.3281 13.625 7.96484 13.625C5.51367 13.625 4.92773 15.1582 3.17969 15.1582H2.19336C1.86133 15.1582 1.59766 15.4219 1.59766 15.7539Z" fill="#76DB9B"/>
<path d="M1.59766 19.4395C1.59766 19.7617 1.86133 20.0254 2.19336 20.0254H3.17969C5.73828 20.0254 6.28516 18.4922 7.96484 18.4922C9.56641 18.4922 10.1914 20.0254 12.75 20.0254C15.3086 20.0254 15.9336 18.4922 17.5352 18.4922C19.2148 18.4922 19.7715 20.0254 22.3203 20.0254H23.3066C23.6387 20.0254 23.9023 19.7617 23.9023 19.4395C23.9023 19.1074 23.6387 18.8438 23.3066 18.8438H22.3203C20.5723 18.8438 19.8984 17.3008 17.5352 17.3008C15.25 17.3008 14.498 18.8438 12.75 18.8438C11.002 18.8438 10.25 17.3008 7.96484 17.3008C5.60156 17.3008 4.92773 18.8438 3.17969 18.8438H2.19336C1.86133 18.8438 1.59766 19.1074 1.59766 19.4395Z" fill="#76DB9B"/>
</svg>
