<svg xmlns="http://www.w3.org/2000/svg" fill="none" viewBox="0 0 20 20"><mask id="a" width="20" height="20" x="0" y="0" maskUnits="userSpaceOnUse" style="mask-type:alpha"><path fill="#76DB9B" d="M0 0h20v20H0z"/></mask><g mask="url(#a)"><path stroke="#76DB9B" stroke-linejoin="round" stroke-width="1.667" d="M2.5 10.833c0-.92.746-1.666 1.667-1.666h11.666c.92 0 1.667.746 1.667 1.666V15h-15v-4.167ZM4.652 6.256a2.5 2.5 0 0 1 2.466-2.09h5.764a2.5 2.5 0 0 1 2.466 2.09l.485 2.91H4.167l.485-2.91Z"/><rect width="2.083" height="3.333" x="14.166" y="14.167" fill="#76DB9B" rx="1.042"/><rect width="2.083" height="3.333" x="4.167" y="14.167" fill="#76DB9B" rx="1.042"/><rect width="3.333" height="1.333" x="5" y="10.833" fill="#76DB9B" rx=".667"/><rect width="3.333" height="1.333" x="11.666" y="10.833" fill="#76DB9B" rx=".667"/></g></svg>