<svg xmlns="http://www.w3.org/2000/svg" width="20" height="20" fill="none">
      <mask id="a" width="21" height="20" x="0" y="0" maskUnits="userSpaceOnUse" style="mask-type: alpha"><path fill="#76DB9B" d="M.002 0h20v20h-20z"></path></mask>
      <g mask="url(#a)">
        <circle cx="10.002" cy="8.333" r="3.333" stroke="#76DB9B" stroke-width="1.667"></circle>
        <path fill="#76DB9B" fill-rule="evenodd" d="M10.002 1.667a8.333 8.333 0 1 0 0 16.666 8.333 8.333 0 0 0 0-16.666ZM.002 10c0-5.523 4.477-10 10-10s10 4.477 10 10-4.477 10-10 10-10-4.477-10-10Z" clip-rule="evenodd"></path>
        <mask id="b" width="14" height="5" x="3.168" y="12.333" fill="#000" maskUnits="userSpaceOnUse">
          <path fill="#fff" d="M3.168 12.333h14v5h-14z"></path>
          <path fill-rule="evenodd" d="M16.293 15.767c-1.283-1.353-3.375-2.434-6.063-2.434-2.684 0-4.777 1.082-6.062 2.435.312.33.651.636 1.013.912.99-1.048 2.705-1.988 5.049-1.988 2.347 0 4.062.938 5.053 1.985.361-.276.7-.58 1.01-.91Z" clip-rule="evenodd"></path>
        </mask>
        <path fill="#76DB9B" fill-rule="evenodd" d="M16.293 15.767c-1.283-1.353-3.375-2.434-6.063-2.434-2.684 0-4.777 1.082-6.062 2.435.312.33.651.636 1.013.912.99-1.048 2.705-1.988 5.049-1.988 2.347 0 4.062.938 5.053 1.985.361-.276.7-.58 1.01-.91Z" clip-rule="evenodd"></path>
        <path fill="#76DB9B" d="m16.293 15.767.146.137.13-.138-.13-.137-.146.138Zm-12.125.001-.145-.138-.13.137.13.138.145-.137Zm1.013.912-.12.16.142.109.124-.131-.146-.138Zm10.102-.003-.145.137.124.13.143-.108-.122-.16Zm-5.053-3.144c2.633 0 4.672 1.058 5.918 2.371l.29-.275c-1.32-1.393-3.465-2.496-6.208-2.496v.4Zm-5.917 2.373c1.248-1.314 3.288-2.373 5.917-2.373v-.4c-2.74 0-4.885 1.104-6.207 2.497l.29.276Zm-.29 0c.32.338.666.65 1.037.933l.243-.318a8.172 8.172 0 0 1-.99-.89l-.29.274Zm6.207-1.414c-2.4 0-4.167.963-5.194 2.051l.29.275c.953-1.009 2.615-1.926 4.904-1.926v-.4Zm5.198 2.047c-1.028-1.086-2.796-2.047-5.198-2.047v.4c2.291 0 3.955.915 4.908 1.922l.29-.275Zm-.023.297c.37-.283.715-.595 1.034-.932l-.291-.275c-.304.322-.634.62-.986.889l.243.318Z" mask="url(#b)"></path>
      </g>
    </svg>