<svg width="100%" height="100%" xmlns="http://www.w3.org/2000/svg" fill="none" viewBox="0 0 25 24"><path fill="#76DB9B" fill-rule="evenodd" d="M4.25 10.284a8.002 8.002 0 0 1 8-8.004c4.418 0 8 3.583 8 8.004 0 1.272-.762 3.065-1.99 5.055-1.198 1.94-2.729 3.897-4.038 5.448a2.55 2.55 0 0 1-3.944 0c-1.309-1.55-2.84-3.507-4.038-5.448-1.228-1.99-1.99-3.783-1.99-5.055Zm8-10.004c-5.523 0-10 4.48-10 10.004 0 1.88 1.046 4.093 2.288 6.105 1.272 2.06 2.873 4.102 4.212 5.688a4.55 4.55 0 0 0 7 0c1.339-1.586 2.94-3.627 4.212-5.688 1.242-2.012 2.288-4.225 2.288-6.105 0-5.525-4.477-10.004-10-10.004Zm-1.5 9.5a1.5 1.5 0 1 1 3 0 1.5 1.5 0 0 1-3 0Zm1.5-3.5a3.5 3.5 0 1 0 0 7 3.5 3.5 0 0 0 0-7Z" clip-rule="evenodd" /></svg>