<svg 
  width="100%"
  height="100%" viewBox="0 0 25 24" fill="none" xmlns="http://www.w3.org/2000/svg">
<mask id="mask0_3380_169997" style="mask-type:alpha" maskUnits="userSpaceOnUse" x="0" y="0" width="25" height="24">
<rect x="0.5" width="24" height="24" fill="#1C1B1F"/>
</mask>
<g mask="url(#mask0_3380_169997)">
<path d="M8.375 18C7.09167 18 6.11667 17.525 5.45 16.575C4.78333 15.625 4.46667 14.5583 4.5 13.375L4.05 12.7C3.86667 12.4167 3.5625 11.775 3.1375 10.775C2.7125 9.775 2.5 8.51667 2.5 7C2.5 5.28333 2.925 3.85417 3.775 2.7125C4.625 1.57083 5.7 1 7 1C8.41667 1 9.52083 1.62917 10.3125 2.8875C11.1042 4.14583 11.5 5.51667 11.5 7C11.5 7.96667 11.3667 8.85833 11.1 9.675C10.8333 10.4917 10.6 11.15 10.4 11.65L10.6 11.975C10.7333 12.2083 10.9167 12.5792 11.15 13.0875C11.3833 13.5958 11.5 14.125 11.5 14.675C11.5 15.625 11.2042 16.4167 10.6125 17.05C10.0208 17.6833 9.275 18 8.375 18ZM5.75 11.6L8.5 11.05C8.71667 10.5167 8.9375 9.90833 9.1625 9.225C9.3875 8.54167 9.5 7.8 9.5 7C9.5 6 9.27083 5.08333 8.8125 4.25C8.35417 3.41667 7.75 3 7 3C6.25 3 5.64583 3.41667 5.1875 4.25C4.72917 5.08333 4.5 6 4.5 7C4.5 8.05 4.64583 8.97917 4.9375 9.7875C5.22917 10.5958 5.5 11.2 5.75 11.6ZM8.375 16C8.69167 16 8.95833 15.8833 9.175 15.65C9.39167 15.4167 9.5 15.0917 9.5 14.675C9.5 14.3917 9.43333 14.1 9.3 13.8C9.16667 13.5 9.03333 13.2333 8.9 13L6.5 13.5C6.5 14.1667 6.64583 14.75 6.9375 15.25C7.22917 15.75 7.70833 16 8.375 16ZM16.625 23C15.725 23 14.9792 22.6833 14.3875 22.05C13.7958 21.4167 13.5 20.625 13.5 19.675C13.5 19.125 13.6167 18.5958 13.85 18.0875C14.0833 17.5792 14.2667 17.2083 14.4 16.975L14.6 16.65C14.4 16.15 14.1667 15.4917 13.9 14.675C13.6333 13.8583 13.5 12.9667 13.5 12C13.5 10.5167 13.8958 9.14583 14.6875 7.8875C15.4792 6.62917 16.5833 6 18 6C19.3 6 20.375 6.57083 21.225 7.7125C22.075 8.85417 22.5 10.2833 22.5 12C22.5 13.5167 22.2875 14.7708 21.8625 15.7625C21.4375 16.7542 21.1333 17.3917 20.95 17.675L20.5 18.375C20.5167 19.5583 20.1958 20.625 19.5375 21.575C18.8792 22.525 17.9083 23 16.625 23ZM19.25 16.6C19.5 16.2 19.7708 15.6 20.0625 14.8C20.3542 14 20.5 13.0667 20.5 12C20.5 11 20.2708 10.0833 19.8125 9.25C19.3542 8.41667 18.75 8 18 8C17.25 8 16.6458 8.41667 16.1875 9.25C15.7292 10.0833 15.5 11 15.5 12C15.5 12.8 15.6125 13.5375 15.8375 14.2125C16.0625 14.8875 16.2833 15.5 16.5 16.05L19.25 16.6ZM16.625 21C17.2917 21 17.7708 20.75 18.0625 20.25C18.3542 19.75 18.5 19.1667 18.5 18.5L16.1 18C15.9667 18.2333 15.8333 18.5 15.7 18.8C15.5667 19.1 15.5 19.3917 15.5 19.675C15.5 20.0083 15.6042 20.3125 15.8125 20.5875C16.0208 20.8625 16.2917 21 16.625 21Z" fill="#A4ADB0"/>
</g>
</svg>
