<svg 
  width="100%"
  height="100%" viewBox="0 0 25 24" fill="none" xmlns="http://www.w3.org/2000/svg">
<mask id="mask0_3380_169991" style="mask-type:alpha" maskUnits="userSpaceOnUse" x="0" y="0" width="25" height="24">
<rect x="0.5" width="24" height="24" fill="#76DB9B"/>
</mask>
<g mask="url(#mask0_3380_169991)">
<path d="M3.38 19.538C3.38 20.1476 3.60146 20.61 4.06476 20.9129C4.51803 21.2093 5.1878 21.3428 6.06522 21.3428H18.9457C19.8177 21.3428 20.4848 21.2092 20.9367 20.9128C21.3986 20.6099 21.62 20.1475 21.62 19.538C21.62 18.1223 20.7362 16.442 19.1642 15.1201C17.5884 13.795 15.3111 12.8202 12.5 12.8202C9.69428 12.8202 7.41701 13.795 5.83993 15.12C4.2666 16.4419 3.38 18.1222 3.38 19.538ZM19.3913 19.4724H5.61957C5.4943 19.4724 5.44009 19.4527 5.41653 19.4341C5.4011 19.422 5.38087 19.3961 5.38087 19.3098C5.38087 18.9256 5.53228 18.4444 5.84048 17.9343C6.14771 17.4258 6.60664 16.8955 7.21063 16.4145C8.41788 15.453 10.2014 14.6906 12.5 14.6906C14.8041 14.6906 16.5904 15.453 17.7989 16.4145C18.4036 16.8956 18.8628 17.4258 19.1702 17.9343C19.4786 18.4444 19.63 18.9256 19.63 19.3098C19.63 19.3961 19.6098 19.422 19.5943 19.4341C19.5708 19.4527 19.5166 19.4724 19.3913 19.4724Z" fill="#A4ADB0" stroke="#A4ADB0" stroke-width="0.24"/>
<circle cx="12.5" cy="7" r="4" stroke="#A4ADB0" stroke-width="2"/>
</g>
</svg>
