<svg width="210" height="41" viewBox="0 0 210 41" fill="none" xmlns="http://www.w3.org/2000/svg">
<path d="M24.01 12.9379C33.3801 8.70037 42.8952 7.48269 50.1978 8.99261C49.3878 8.61513 48.5536 7.96976 48.0578 7.06868C46.7158 4.62115 44.068 3.15994 41.0575 3.50089C39.8122 3.64701 38.579 3.33042 37.781 2.77029C36.6445 1.99098 35.3629 1.50391 33.8153 1.50391C32.2678 1.50391 30.9862 1.99098 29.8497 2.77029C29.0396 3.31824 27.8064 3.63484 26.5732 3.50089C23.5506 3.15994 20.9149 4.62115 19.5729 7.06868C18.9804 8.16459 17.9165 8.85866 16.9492 9.18744C14.5432 10.0155 12.5604 12.2194 12.2944 15.0932C12.1735 16.4448 11.3756 17.5163 10.7831 18.113C9.16302 19.7325 8.49805 21.6442 8.49805 23.5804V23.6778C12.4516 19.5377 17.7593 15.7629 24.0342 12.9379H24.01Z" fill="url(#paint0_linear_3921_1101)"/>
<path d="M32.2806 18.4781C40.2845 14.8616 48.3971 13.4369 55.1436 14.0457C54.5632 11.6834 52.8101 9.92998 50.6701 9.17503C50.5129 9.12632 50.3558 9.05326 50.1865 8.9802C42.8839 7.47028 33.3687 8.68796 23.9987 12.9255C17.7359 15.7626 12.4282 19.5374 8.47461 23.6775C8.52297 27.501 11.3521 30.6426 15.0276 31.1541C19.09 26.2712 25.0506 21.7414 32.2927 18.4781H32.2806Z" fill="url(#paint1_linear_3921_1101)"/>
<path d="M56.836 18.1129C56.2435 17.5163 55.4577 16.4447 55.3247 15.0931C55.2884 14.74 55.2279 14.3868 55.1554 14.0581C48.409 13.4492 40.2963 14.8739 32.2924 18.4904C25.0503 21.7538 19.0897 26.2835 15.0273 31.1664C15.3659 31.2151 15.7165 31.2395 16.0671 31.2395H26.9606C28.0003 31.2395 28.8346 32.104 28.8346 33.1512V33.6017C28.8346 35.3552 27.1177 35.5866 27.1177 35.5866L18.2555 37.1208C17.9411 37.1695 17.6751 37.3887 17.6751 37.7053V38.8012H49.9323V37.7053C49.9323 37.3887 49.6664 37.1695 49.352 37.1208L40.4897 35.5866C40.4897 35.5866 38.7729 35.3552 38.7729 33.6017V33.1512C38.7729 32.104 39.6071 31.2516 40.6469 31.2395H51.5525C55.7478 31.2395 59.1452 27.8178 59.1452 23.5925C59.1452 21.6442 58.4682 19.7446 56.8601 18.1251L56.836 18.1129Z" fill="#009043"/>
<path d="M73.9316 34.1816C73.9316 32.0142 74.7175 29.9685 77.7401 29.9685C78.4172 29.9685 79.1305 30.1024 79.602 30.2485L79.3965 31.3932C78.925 31.2105 78.3325 31.0887 77.7764 31.0887C75.9749 31.0887 75.2737 32.3551 75.2737 34.1938C75.2737 36.0325 76.0837 37.031 77.8127 37.031C78.3567 37.031 79.0942 36.8971 79.5174 36.7388L79.6504 37.8955C79.2151 38.0417 78.4535 38.1756 77.7643 38.1756C74.7901 38.1756 73.9437 36.3004 73.9437 34.1816H73.9316ZM85.6472 37.9443L84.6075 38.1269C84.4019 37.859 84.281 37.5059 84.2327 37.1528C83.882 37.8103 83.1687 38.1634 82.4312 38.1634C81.5244 38.1634 80.5088 37.7007 80.5088 36.3004C80.5088 34.9001 81.2705 34.4252 84.0755 34.3034V33.9016C84.0755 33.2927 83.9667 32.8909 83.0115 32.8909C82.407 32.8909 81.8146 33.0614 81.2463 33.3658L80.9803 32.3308C81.5244 32.0751 82.3587 31.8559 83.1566 31.8559C84.7163 31.8559 85.2241 32.5134 85.2241 33.8894V36.2152C85.2241 36.9823 85.3571 37.6155 85.6352 37.9443H85.6472ZM81.6574 36.2639C81.6574 36.9945 82.2619 37.1528 82.673 37.1528C83.3984 37.1528 83.9667 36.6413 84.0876 36.0569V35.2167C82.2257 35.3263 81.6695 35.4724 81.6695 36.2639H81.6574ZM89.359 37.1041V38.0417L88.8028 38.0782C87.7872 38.1269 87.1344 37.7616 87.1344 36.6535V33.0857H86.1913V32.1238H87.1344V30.76L88.3434 30.4556V32.1238H89.5766V33.0857H88.3434V36.1908C88.3434 36.8971 88.4885 37.1041 89.0205 37.1041H89.3711H89.359ZM93.6874 31.9289C95.2108 31.9289 95.6218 32.8909 95.6218 33.9625V38.0173H94.4007V34.2669C94.4007 33.5119 94.1468 32.9396 93.3126 32.9396C92.7443 32.9396 92.1519 33.2197 91.8496 33.5972V38.0173H90.6164V29.8467L91.8496 29.6641V32.6717C92.2365 32.2699 92.9378 31.9289 93.6753 31.9289H93.6874ZM101.909 37.9443L100.869 38.1269C100.664 37.859 100.543 37.5059 100.494 37.1528C100.144 37.8103 99.4303 38.1634 98.6928 38.1634C97.786 38.1634 96.7704 37.7007 96.7704 36.3004C96.7704 34.9001 97.5321 34.4252 100.337 34.3034V33.9016C100.337 33.2927 100.228 32.8909 99.2731 32.8909C98.6686 32.8909 98.0762 33.0614 97.5079 33.3658L97.2419 32.3308C97.786 32.0751 98.6202 31.8559 99.4182 31.8559C100.978 31.8559 101.486 32.5134 101.486 33.8894V36.2152C101.486 36.9823 101.619 37.6155 101.897 37.9443H101.909ZM97.919 36.2639C97.919 36.9945 98.5235 37.1528 98.9346 37.1528C99.66 37.1528 100.216 36.6413 100.349 36.0569V35.2167C98.4872 35.3263 97.9311 35.4724 97.9311 36.2639H97.919ZM106.431 32.0385H107.785C107.289 33.5363 106.358 36.276 105.766 37.7981C105.27 39.0767 104.774 39.9656 104.327 40.4648L103.13 39.9291C103.589 39.5029 104.133 38.687 104.581 37.6033L102.272 32.0385H103.638L105.197 36.276C105.633 35.034 106.14 33.244 106.443 32.0385H106.431Z" fill="#191C1A"/>
<path d="M111.436 34.1819C111.436 32.0144 112.221 29.9688 115.244 29.9688C115.921 29.9688 116.634 30.1027 117.106 30.2488L116.9 31.3934C116.429 31.2108 115.836 31.089 115.28 31.089C113.479 31.089 112.778 32.3554 112.778 34.1941C112.778 36.0328 113.588 37.0313 115.317 37.0313C115.861 37.0313 116.61 36.8973 117.021 36.739L117.154 37.8958C116.719 38.0419 115.957 38.1759 115.268 38.1759C112.294 38.1759 111.448 36.3007 111.448 34.1819H111.436ZM121.047 37.153C121.652 37.153 122.305 37.0191 122.776 36.8121L123.006 37.7984C122.631 37.981 121.845 38.2002 120.951 38.2002C118.811 38.2002 117.952 36.873 117.952 35.1073C117.952 33.3417 118.92 31.8318 120.781 31.8318C122.426 31.8318 123.079 32.9642 123.079 34.535V35.2535H119.173C119.173 36.5442 119.875 37.1409 121.035 37.1409L121.047 37.153ZM120.648 32.7938C119.778 32.7938 119.27 33.5731 119.21 34.3646H121.954C121.954 33.4026 121.604 32.7938 120.661 32.7938H120.648ZM125.4 31.9536C125.485 32.1606 125.569 32.5259 125.593 32.7329C125.98 32.2945 126.742 31.9292 127.48 31.9292C129.015 31.9292 129.426 32.8912 129.426 33.9627V38.0176H128.205V34.2671C128.205 33.5122 127.951 32.9399 127.117 32.9399C126.549 32.9399 125.956 33.2199 125.642 33.5731V38.0054H124.421V33.3174C124.421 32.8912 124.384 32.4406 124.276 32.0875L125.4 31.9292V31.9536ZM133.537 37.1165V38.0541L132.981 38.0906C131.965 38.1393 131.312 37.774 131.312 36.666V33.0982H130.369V32.1362H131.312V30.7724L132.521 30.468V32.1362H133.754V33.0982H132.521V36.2032C132.521 36.9095 132.678 37.1165 133.198 37.1165H133.549H133.537ZM136.717 38.1637C135.181 38.1637 134.77 37.1896 134.77 36.118V32.051H135.991V35.8136C135.991 36.5685 136.233 37.1287 137.079 37.1287C137.648 37.1287 138.228 36.8486 138.542 36.4833V32.0388H139.775V36.3007C139.775 36.9582 139.824 37.494 139.945 37.9567L138.784 38.115C138.687 37.8715 138.639 37.5792 138.603 37.36C138.155 37.7984 137.442 38.1393 136.704 38.1393L136.717 38.1637ZM144.515 31.9657L144.454 33.0616C143.753 33.0616 142.967 33.3052 142.677 33.9384V38.0298H141.456V33.5731C141.456 33.0251 141.42 32.4772 141.311 32.1119L142.435 31.9536C142.52 32.1606 142.617 32.6111 142.641 32.8546C142.943 32.3432 143.705 31.9536 144.515 31.9536V31.9657ZM149.303 32.051H150.657C150.161 33.5487 149.23 36.2885 148.638 37.8106C148.13 39.0891 147.646 39.978 147.199 40.4773L146.002 39.9415C146.461 39.5153 147.006 38.6995 147.453 37.6157L145.144 32.051H146.51L148.069 36.2885C148.505 35.0465 149.013 33.2565 149.315 32.051H149.303Z" fill="#191C1A"/>
<path d="M155.941 38.0433H154.672V30.1406H155.941V38.0433ZM158.65 31.9671C158.734 32.1741 158.819 32.5394 158.843 32.7464C159.23 32.3081 159.992 31.9428 160.729 31.9428C162.265 31.9428 162.676 32.9047 162.676 33.9763V38.0312H161.442V34.2807C161.442 33.5258 161.189 32.9535 160.354 32.9535C159.786 32.9535 159.194 33.2335 158.879 33.5866V38.019H157.658V33.3309C157.658 32.9047 157.61 32.4542 157.513 32.1011L158.638 31.9428L158.65 31.9671ZM167.415 33.1605C167.065 33.0022 166.545 32.8682 166.109 32.8682C165.735 32.8682 165.227 33.0022 165.227 33.5623C165.227 33.9641 165.517 34.1468 166.267 34.5121C167.113 34.9139 167.826 35.3523 167.826 36.3751C167.826 37.812 166.774 38.2138 165.855 38.2138C165.239 38.2138 164.332 38.0555 163.812 37.8607L164.09 36.8135C164.574 37.0327 165.275 37.1788 165.735 37.1788C166.194 37.1788 166.617 37.0205 166.617 36.4238C166.617 35.9611 166.194 35.7054 165.396 35.3279C164.562 34.9504 164.03 34.573 164.03 33.6232C164.03 32.2107 165.227 31.9063 166.121 31.9063C166.653 31.9063 167.367 32.028 167.73 32.1741L167.439 33.1726L167.415 33.1605ZM170.921 38.1773C169.386 38.1773 168.975 37.2031 168.975 36.1316V32.0646H170.208V35.8272C170.208 36.5821 170.45 37.1423 171.296 37.1423C171.864 37.1423 172.445 36.8622 172.759 36.4969V32.0524H173.992V36.3142C173.992 36.9718 174.041 37.5076 174.162 37.9703L173.013 38.1286C172.916 37.885 172.856 37.5928 172.832 37.3736C172.384 37.812 171.671 38.1529 170.933 38.1529L170.921 38.1773ZM178.72 31.9793L178.659 33.0752C177.97 33.0752 177.172 33.3188 176.882 33.9519V38.0433H175.649V33.5866C175.649 33.0387 175.612 32.4907 175.504 32.1254L176.628 31.9671C176.713 32.1741 176.809 32.6247 176.834 32.8682C177.136 32.3568 177.898 31.9671 178.708 31.9671L178.72 31.9793ZM184.33 37.9581L183.29 38.1407C183.084 37.8729 182.963 37.5197 182.915 37.1666C182.564 37.8242 181.851 38.1773 181.114 38.1773C180.207 38.1773 179.191 37.7146 179.191 36.3142C179.191 34.9139 179.953 34.439 182.758 34.3173V33.9154C182.758 33.3066 182.649 32.9047 181.694 32.9047C181.089 32.9047 180.497 33.0752 179.929 33.3796L179.663 32.3446C180.207 32.0889 181.041 31.8697 181.839 31.8697C183.399 31.8697 183.919 32.5273 183.919 33.9032V36.229C183.919 36.9961 184.052 37.6293 184.33 37.9581ZM180.34 36.2777C180.34 37.0083 180.944 37.1666 181.355 37.1666C182.081 37.1666 182.637 36.6552 182.77 36.0707V35.2305C180.908 35.3401 180.352 35.4862 180.352 36.2777H180.34ZM186.53 31.9671C186.615 32.1741 186.699 32.5394 186.724 32.7464C187.11 32.3081 187.872 31.9428 188.61 31.9428C190.145 31.9428 190.556 32.9047 190.556 33.9763V38.0312H189.335V34.2807C189.335 33.5258 189.081 32.9535 188.247 32.9535C187.679 32.9535 187.086 33.2335 186.772 33.5866V38.019H185.551V33.3309C185.551 32.9047 185.502 32.4542 185.406 32.1011L186.53 31.9428V31.9671ZM191.862 35.0966C191.862 33.4162 192.515 31.8697 194.812 31.8697C195.368 31.8697 195.9 31.9793 196.202 32.0889L195.973 33.1239C195.622 32.99 195.175 32.9169 194.824 32.9169C193.579 32.9169 193.095 33.818 193.095 35.0966C193.095 36.3751 193.627 37.1423 194.86 37.1423C195.223 37.1423 195.731 37.0692 196.045 36.9231L196.215 37.9825C195.936 38.0799 195.368 38.2016 194.788 38.2016C192.515 38.2016 191.85 36.6917 191.85 35.0966H191.862ZM199.963 37.1544C200.567 37.1544 201.22 37.0205 201.691 36.8135L201.921 37.7998C201.546 37.9825 200.761 38.2016 199.866 38.2016C197.726 38.2016 196.867 36.8744 196.867 35.1087C196.867 33.3431 197.835 31.8332 199.697 31.8332C201.341 31.8332 201.994 32.9656 201.994 34.5364V35.2549H198.089C198.089 36.5456 198.79 37.1423 199.95 37.1423L199.963 37.1544ZM199.564 32.7952C198.693 32.7952 198.185 33.5745 198.125 34.366H200.869C200.869 33.404 200.519 32.7952 199.576 32.7952H199.564Z" fill="#191C1A"/>
<path d="M166.253 2.65806C166.096 2.45105 165.818 2.40234 165.685 2.40234H164.234C164.101 2.40234 163.823 2.45105 163.666 2.65806C162.578 4.07056 160.74 6.28673 157.198 7.78447C156.895 7.86971 156.932 8.14977 156.932 8.14977L157.149 8.96561C157.149 8.96561 157.258 9.30656 157.597 9.14826C158.939 8.63684 160.063 8.05236 161.03 7.4557V8.29589C161.03 8.41766 161.127 8.51507 161.248 8.51507H168.684C168.804 8.51507 168.901 8.41766 168.901 8.29589V7.4557C169.868 8.05236 170.993 8.63684 172.335 9.14826C172.661 9.30656 172.782 8.96561 172.782 8.96561L173 8.14977C173 8.14977 173.036 7.86971 172.734 7.78447C169.191 6.28673 167.354 4.07056 166.265 2.65806H166.253ZM161.611 7.09039C163.17 6.03102 164.246 4.94728 164.96 4.07056C165.685 4.94728 166.749 6.04319 168.309 7.09039H161.611ZM166.64 14.9444H170.509C171.138 14.9444 171.646 14.433 171.646 13.7998V10.8895C171.646 10.2563 171.138 9.74493 170.509 9.74493H166.64C166.012 9.74493 165.504 10.2563 165.504 10.8895V13.7998C165.504 14.433 166.012 14.9444 166.64 14.9444ZM167.692 10.853H169.554V13.7389H167.692V10.853ZM163.267 14.9444C163.896 14.9444 164.404 14.433 164.404 13.7998V10.8895C164.404 10.2563 163.896 9.74493 163.267 9.74493H159.398C158.769 9.74493 158.262 10.2563 158.262 10.8895V13.7998C158.262 14.433 158.769 14.9444 159.398 14.9444H163.267ZM160.462 10.853H162.324V13.7389H160.462V10.853ZM157.524 21.8121V20.7527C157.524 20.7527 157.524 20.6309 157.681 20.5579C159.047 19.9612 159.712 19.1088 160.027 17.7085C160.124 17.2945 160.184 16.8318 160.22 16.3082C160.22 16.1255 160.402 16.1012 160.474 16.1012H162.094C162.348 16.1012 162.324 16.3204 162.324 16.3204C162.324 16.8196 162.276 17.2823 162.203 17.7085C162.131 18.0982 162.022 18.4148 161.877 18.7192C162.783 19.4133 163.666 20.1682 164.537 20.8623C164.633 20.9475 164.633 21.0815 164.537 21.1789C164.101 21.5807 164.198 21.5077 163.763 21.9095C163.593 22.0434 163.388 22.0069 163.219 21.8851C162.481 21.1667 161.756 20.5457 161.006 19.9612C160.244 20.7771 159.168 21.5077 157.742 21.9704C157.488 22.0678 157.512 21.8243 157.512 21.8243L157.524 21.8121ZM165.6 20.5579C166.967 19.9612 167.644 19.1088 167.946 17.7085C168.043 17.2945 168.103 16.8318 168.139 16.3082C168.139 16.1255 168.321 16.1012 168.393 16.1012H170.013C170.267 16.1012 170.243 16.3204 170.243 16.3204C170.243 16.8196 170.207 17.2823 170.122 17.7085C170.05 18.0982 169.941 18.4148 169.796 18.7192C170.703 19.4133 171.585 20.1682 172.456 20.8623C172.552 20.9475 172.552 21.0815 172.456 21.1789C172.02 21.5807 172.117 21.5077 171.682 21.9095C171.525 22.0434 171.307 22.0069 171.138 21.8851C170.4 21.1667 169.675 20.5457 168.925 19.9612C168.164 20.7771 167.088 21.5077 165.661 21.9704C165.407 22.0678 165.431 21.8243 165.431 21.8243V20.7649C165.431 20.7649 165.431 20.6431 165.588 20.5701L165.6 20.5579ZM155.795 15.3341C156.351 14.3721 155.904 12.4603 154.429 9.57445C154.441 9.56227 155.432 4.75246 155.432 4.75246C155.505 4.43586 155.432 4.33845 155.07 4.33845H153.752C153.667 4.33845 153.631 4.3628 153.631 4.46021V21.7268C153.631 21.873 153.51 21.9947 153.365 21.9947H152.906C152.253 21.9947 151.721 21.459 151.721 20.8136V4.24103C151.721 3.60784 152.228 3.08424 152.869 3.08424H156.593L157.778 3.6809C157.851 3.71743 157.863 3.80267 157.838 3.87573L156.134 9.00214C156.025 9.35527 156.085 9.53792 156.194 9.74493C156.895 10.8895 157.427 12.0707 157.609 13.4345C157.742 14.433 157.742 15.5898 157.101 16.43C156.847 16.7222 156.521 16.9779 156.146 17.0997C155.771 17.2093 154.949 17.1849 154.949 17.1849L154.707 17.1606C154.586 17.1606 154.501 17.051 154.514 16.9292L154.598 15.7968C154.598 15.6872 154.707 15.5898 154.828 15.6019C154.828 15.6019 155.215 15.6263 155.324 15.6019C155.553 15.5776 155.723 15.468 155.807 15.2975L155.795 15.3341Z" fill="#191C1A"/>
<path d="M127.093 21.9465C127.093 21.9465 127.117 21.9465 127.141 21.9465C127.214 21.9465 127.238 21.8856 127.25 21.8734C128.157 20.4244 129.728 17.9282 129.728 15.3345V14.056V11.9494C129.728 11.8155 129.789 11.7424 129.934 11.7424H136.717V13.8977H133.247C133.319 13.5446 133.368 13.1549 133.368 12.7409C133.368 12.7409 133.392 12.5704 133.211 12.5704C133.211 12.5704 133.259 12.5704 131.711 12.5704C131.711 12.5704 131.518 12.5582 131.518 12.7287C131.409 14.4456 131.24 14.8353 130.285 15.9068V17.1976C130.285 17.1976 130.26 17.3802 130.442 17.3072C131.47 16.8445 132.243 16.1869 132.739 15.3224H136.717V17.2098H132.062C131.941 17.2098 131.844 17.3072 131.844 17.4289V18.4274C131.844 18.5492 131.941 18.6466 132.062 18.6466H136.717V20.534H129.076C128.955 20.534 128.858 20.7775 128.858 20.8993V21.7517C128.858 21.8735 128.955 21.9709 129.076 21.9709H146.667C146.788 21.9709 146.885 21.8735 146.885 21.7517V20.7532C146.885 20.6314 146.788 20.534 146.667 20.534H139.026V18.6466H143.681C143.802 18.6466 143.898 18.5492 143.898 18.4274V17.4289C143.898 17.3072 143.802 17.2098 143.681 17.2098H139.026V15.3224H144.745C144.866 15.3224 144.962 15.2249 144.962 15.1032V14.1047C144.962 13.9829 144.866 13.8855 144.745 13.8855H139.026V11.7302H145.724C145.845 11.7302 145.942 11.6328 145.942 11.511V10.5125C145.942 10.3908 145.845 10.2934 145.724 10.2934H143.512C143.536 10.2081 143.56 10.0498 143.608 9.68452C143.669 9.4897 143.608 9.38011 143.439 9.34358C142.037 9.07569 140.428 8.56426 138.881 7.99196C139.969 7.54142 141.045 7.05435 142.012 6.56728V5.65402H145.071C145.192 5.65402 145.289 5.55661 145.289 5.43484V4.43635C145.289 4.31458 145.192 4.21716 145.071 4.21716H137.877V2.87772C137.877 2.7316 137.757 2.59766 137.624 2.59766H135.834C135.689 2.59766 135.568 2.71942 135.568 2.86554V4.22934H128.374C128.253 4.22934 128.157 4.32675 128.157 4.44852V5.44702C128.157 5.56878 128.253 5.6662 128.374 5.6662H131.639V6.57945C132.606 7.06652 133.682 7.55359 134.77 8.00413C133.223 8.57644 131.603 9.08786 130.212 9.35575C130.043 9.39228 129.982 9.50187 130.043 9.6967C130.091 10.062 130.127 10.2081 130.14 10.3055H128.713C128.072 10.3055 127.564 10.817 127.564 11.4623V14.8353C127.564 16.3574 127.54 16.8688 127.335 17.916C127.117 18.9876 126.609 20.1809 125.993 21.3864C125.993 21.3864 125.98 21.4229 125.98 21.4351C125.98 21.4838 126.017 21.5203 126.053 21.5447L127.069 21.9465H127.093ZM133.682 5.6662H140.005C139.256 6.09238 138.131 6.64034 136.85 7.18829C135.568 6.64034 134.444 6.09238 133.694 5.6662H133.682ZM136.838 8.8078C138.603 9.46534 140.271 10.0011 141.492 10.3055H132.183C133.404 10.0011 135.072 9.46534 136.838 8.8078Z" fill="#191C1A"/>
<path d="M78.6707 14.4057H83.9784C84.6071 14.4057 85.127 13.8943 85.127 13.2489V9.94899C85.127 9.30362 84.6192 8.7922 83.9784 8.7922H78.6707C78.042 8.7922 77.5221 9.30362 77.5221 9.94899V13.2489C77.5221 13.8943 78.0299 14.4057 78.6707 14.4057ZM80.0611 9.9977H82.588V13.188H80.049V9.9977H80.0611ZM93.7595 2.78906H75.0919C74.4632 2.78906 73.9434 3.30049 73.9434 3.94585V20.8107C73.9434 21.4438 74.4632 21.9674 75.0919 21.9674H93.7595C94.3882 21.9674 94.9081 21.456 94.9081 20.8107V3.95803C94.9081 3.32484 94.4003 2.80124 93.7716 2.80124L93.7595 2.78906ZM87.5692 4.20157H89.1773C89.2619 4.62775 89.3828 5.29747 89.5037 6.12549H87.6055C87.5571 5.23659 87.5571 4.56687 87.5692 4.20157ZM76.5549 4.20157H85.5381C85.5381 4.56687 85.5864 5.23659 85.671 6.12549H76.567V4.20157H76.5549ZM92.2966 20.5671H76.5549V7.55017H85.8282C86.1063 9.66893 86.6746 12.3965 87.7869 14.9536C86.8317 16.3418 85.6952 17.6082 84.3774 18.5092C84.2686 18.5823 84.3411 18.7041 84.3411 18.7041L84.7643 19.5199C84.7643 19.5199 84.8247 19.6782 84.9577 19.5808C86.336 18.7893 87.5209 17.7056 88.5365 16.4879C89.2135 17.7299 90.0599 18.8624 91.0876 19.8122C91.1843 19.9339 91.2931 19.8365 91.2931 19.8365L91.9339 19.0816C91.9339 19.0816 92.0185 19.0207 91.9218 18.9233C90.9425 17.7543 90.1929 16.4392 89.6004 15.0876C90.3259 14.0282 90.9425 12.9079 91.4744 11.812C91.5712 11.6294 91.4019 11.5807 91.4019 11.5807L90.0599 11.0327C90.0599 11.0327 89.9148 10.9718 89.8543 11.1301C89.5642 11.812 89.2377 12.5061 88.875 13.188C88.2221 11.1667 87.8957 9.16968 87.7264 7.55017H91.1117C91.1117 7.55017 91.5954 7.55017 91.5712 6.95351C91.3777 5.88196 91.1843 4.8104 91.0755 4.21374H92.3087V20.5793L92.2966 20.5671ZM85.1391 16.5244V15.5381C85.1391 15.3676 84.9819 15.4042 84.9819 15.4042C82.3462 16.1713 79.2027 16.427 77.7639 16.4636C77.643 16.4636 77.5463 16.561 77.5463 16.6827V18.2657C77.5463 18.3875 77.643 18.4849 77.7639 18.4849C79.384 18.424 82.8661 17.6812 84.994 16.7193C84.994 16.7193 85.127 16.6706 85.127 16.5244H85.1391Z" fill="#191C1A"/>
<path d="M110.71 13.1283H109.513C109.368 13.1283 109.247 13.25 109.247 13.384V19.655C109.235 20.2395 109.138 20.5561 108.195 20.5561H107.651C107.566 20.5561 107.578 20.6291 107.578 20.6291V21.6398C107.578 21.8225 107.723 21.9686 107.905 21.9686H108.896C111.145 21.9686 111.858 21.6642 111.87 19.6915V14.2729C111.87 13.6397 111.363 13.1161 110.722 13.1161L110.71 13.1283ZM120.89 14.7112C119.584 14.0902 118.097 13.1526 117.009 12.0689H120.902C121.023 12.0689 121.119 11.9715 121.119 11.8497V10.6929C121.119 10.5711 121.023 10.4737 120.902 10.4737H107.615C108.086 9.86489 108.521 9.25606 108.908 8.64722H118.387C118.508 8.64722 118.605 8.54981 118.605 8.42804V7.27125C118.605 7.14948 118.508 7.05206 118.387 7.05206H109.863C110.226 6.39452 110.552 5.77351 110.818 5.22555H120.14C120.261 5.22555 120.358 5.12814 120.358 5.00637V3.84958C120.358 3.72781 120.261 3.6304 120.14 3.6304H111.508C111.604 3.39904 111.677 3.20421 111.725 3.05809C111.798 2.83891 111.786 2.68061 111.544 2.6319C111.036 2.52231 110.008 2.30313 109.706 2.23007C109.307 2.13266 109.235 2.53449 109.235 2.53449L109.065 3.08244C109.017 3.25292 108.944 3.43557 108.872 3.64257H101.17C101.049 3.64257 100.953 3.73999 100.953 3.86176V5.01855C100.953 5.14031 101.049 5.23773 101.17 5.23773H108.219C107.965 5.81004 107.675 6.43105 107.324 7.06424H102.875C102.754 7.06424 102.657 7.16166 102.657 7.28342V8.44021C102.657 8.56198 102.754 8.6594 102.875 8.6594H106.418C106.031 9.28041 105.62 9.88925 105.16 10.4859H100.324C100.203 10.4859 100.106 10.5833 100.106 10.7051V11.8619C100.106 11.9836 100.203 12.0811 100.324 12.0811H103.806C102.778 13.1648 101.606 14.1024 100.3 14.7234C99.9613 14.8452 100.118 15.1374 100.118 15.1374L100.372 15.7584C100.372 15.7584 100.457 16.0142 100.759 15.9046C101.581 15.6123 102.355 15.2105 103.081 14.7478C104.785 15.174 106.817 16.0994 107.312 16.3064C107.469 16.3916 107.542 16.2577 107.542 16.2577L108.159 14.9548C108.159 14.9548 108.267 14.7843 108.086 14.7112C107.373 14.3946 105.789 13.9441 104.544 13.664C105.136 13.177 105.704 12.6412 106.224 12.0811H114.542C115.038 12.6047 115.606 13.1039 116.223 13.5788C115.231 14.0415 113.623 14.4068 112.741 14.5042C112.632 14.5164 112.584 14.5895 112.608 14.7234C112.777 15.247 112.838 15.6489 113.007 16.1603C113.067 16.3307 113.14 16.3307 113.261 16.3064C113.853 16.2212 116.428 15.247 117.541 14.4921C118.46 15.0644 119.427 15.5514 120.394 15.9046C120.696 16.0142 120.781 15.7584 120.781 15.7584L121.035 15.1374C121.035 15.1374 121.192 14.833 120.854 14.7234L120.89 14.7112ZM108.412 18.2669C108.352 17.8041 108.34 17.865 108.243 17.3901C108.243 17.3171 108.146 17.2318 108.038 17.2805C105.922 18.3886 103.806 18.9487 101.509 19.5819C101.376 19.6306 101.328 19.7281 101.388 19.8498C101.581 20.2517 101.896 20.9579 102.029 21.2623C102.077 21.3597 102.222 21.445 102.379 21.3841C104.253 20.7509 106.599 19.5454 108.316 18.5469C108.425 18.4617 108.437 18.3886 108.412 18.2669ZM119.403 19.6794C117.492 18.7783 115.256 17.9868 113.261 17.5241C113.067 17.4632 113.043 17.6093 113.043 17.6093L112.656 18.4495C112.656 18.4495 112.572 18.6322 112.741 18.693C114.651 19.5332 116.344 20.203 118.145 21.2867C118.327 21.3719 118.544 21.3597 118.677 21.1893C119.016 20.69 119.149 20.4708 119.487 19.9716C119.56 19.862 119.524 19.7402 119.403 19.6794Z" fill="#191C1A"/>
<defs>
<linearGradient id="paint0_linear_3921_1101" x1="40.187" y1="-0.0181877" x2="15.9199" y2="29.7433" gradientUnits="userSpaceOnUse">
<stop stop-color="#6FBA2C"/>
<stop offset="0.36" stop-color="#42A835"/>
<stop offset="0.79" stop-color="#12963F"/>
<stop offset="1" stop-color="#009043"/>
</linearGradient>
<linearGradient id="paint1_linear_3921_1101" x1="47.7321" y1="-0.931679" x2="18.7825" y2="34.5568" gradientUnits="userSpaceOnUse">
<stop stop-color="#45B035"/>
<stop offset="0.22" stop-color="#2CA439"/>
<stop offset="0.52" stop-color="#14993E"/>
<stop offset="0.78" stop-color="#059241"/>
<stop offset="1" stop-color="#009043"/>
</linearGradient>
</defs>
</svg>
