<svg width="100%" height="100%" xmlns="http://www.w3.org/2000/svg" fill="none" viewBox="0 0 32 32">
  <g clip-path="url(#a)">
    <path fill="#06C755" d="M24.786 0H7.214A7.214 7.214 0 0 0 0 7.214v17.572A7.214 7.214 0 0 0 7.214 32h17.572A7.214 7.214 0 0 0 32 24.786V7.214A7.214 7.214 0 0 0 24.786 0Z"></path>
    <path fill="#fff" d="M26.666 14.492c0-4.774-4.786-8.658-10.669-8.658-5.883 0-10.669 3.884-10.669 8.658 0 4.28 3.796 7.864 8.923 8.542.347.075.82.229.94.526.108.27.07.692.035.965l-.152.913c-.047.27-.214 1.055.924.575 1.14-.48 6.144-3.618 8.382-6.194 1.546-1.696 2.287-3.416 2.287-5.327Z"></path>
    <path fill="#06C755" d="M23.116 17.25h-2.997a.204.204 0 0 1-.204-.205V12.39c0-.113.091-.204.204-.204h2.997c.112 0 .204.092.204.204v.757a.204.204 0 0 1-.204.204h-2.037v.786h2.037c.112 0 .204.092.204.204v.757a.204.204 0 0 1-.204.204h-2.037v.786h2.037c.112 0 .204.092.204.204v.757a.204.204 0 0 1-.204.204v-.003ZM12.03 17.25a.204.204 0 0 0 .203-.205v-.757a.205.205 0 0 0-.204-.204H9.992v-3.696a.205.205 0 0 0-.204-.204h-.757a.204.204 0 0 0-.204.204V17.045c0 .113.091.204.204.204H12.03ZM13.833 12.185h-.756a.204.204 0 0 0-.204.204v4.656c0 .113.091.204.204.204h.756a.204.204 0 0 0 .204-.204V12.39a.204.204 0 0 0-.204-.204ZM18.984 12.185h-.757a.204.204 0 0 0-.204.204v2.765l-2.13-2.877-.016-.02-.001-.002-.012-.013-.004-.003-.011-.009c-.002 0-.004-.003-.006-.004l-.011-.007c-.002 0-.004-.003-.006-.004l-.011-.006-.006-.003-.012-.005-.007-.002c-.004 0-.008-.003-.012-.004a.019.019 0 0 1-.007-.002l-.012-.003h-.01l-.01-.002h-.77a.204.204 0 0 0-.204.204v4.656c0 .112.09.204.204.204h.757a.204.204 0 0 0 .204-.204v-2.765l2.133 2.881a.197.197 0 0 0 .055.053l.013.008.006.003.01.005.01.004.006.002a.074.074 0 0 0 .014.004h.003a.233.233 0 0 0 .053.007h.752a.204.204 0 0 0 .204-.204V12.39a.204.204 0 0 0-.204-.204h-.001Z"></path>
  </g>
  <defs>
    <clipPath id="a"><path fill="#fff" d="M0 0h32v32H0z"></path></clipPath>
  </defs>
</svg>